<?xml version="1.0" standalone="no"?>
<!DOCTYPE svg PUBLIC "-//W3C//DTD SVG 20010904//EN"
 "http://www.w3.org/TR/2001/REC-SVG-20010904/DTD/svg10.dtd">
<svg version="1.0" xmlns="http://www.w3.org/2000/svg"
 width="129.000000pt" height="104.000000pt" viewBox="0 0 129.000000 104.000000"
 preserveAspectRatio="xMidYMid meet">

<g transform="translate(0.000000,104.000000) scale(0.100000,-0.100000)"
fill="#000000" stroke="none">
<path d="M517 885 c-150 -30 -296 -128 -384 -258 -66 -97 -67 -119 -12 -204
83 -128 227 -231 374 -268 76 -19 234 -19 310 0 154 39 309 154 388 286 45 76
44 88 -20 182 -143 212 -397 313 -656 262z m283 -102 c30 -8 82 -30 115 -48
64 -35 171 -139 198 -192 17 -31 17 -31 -28 -92 -49 -66 -124 -130 -195 -166
-162 -82 -377 -69 -529 32 -64 42 -140 119 -166 167 -17 31 -17 38 -4 62 23
44 115 140 167 172 132 85 287 107 442 65z"/>
<path d="M603 734 c-7 -3 -9 -14 -3 -32 19 -70 -38 -136 -118 -137 -46 0 -47
-1 -50 -34 -6 -58 18 -122 62 -166 90 -90 240 -86 323 8 41 47 56 96 51 167
-5 73 -40 129 -104 166 -45 26 -131 41 -161 28z"/>
</g>
</svg>
