<?xml version="1.0" standalone="no"?>
<!DOCTYPE svg PUBLIC "-//W3C//DTD SVG 20010904//EN"
 "http://www.w3.org/TR/2001/REC-SVG-20010904/DTD/svg10.dtd">
<svg version="1.0" xmlns="http://www.w3.org/2000/svg"
 width="129.000000pt" height="104.000000pt" viewBox="0 0 129.000000 104.000000"
 preserveAspectRatio="xMidYMid meet">

<g transform="translate(0.000000,104.000000) scale(0.100000,-0.100000)"
fill="#000000" stroke="none">
<path d="M26 1008 c-9 -12 -16 -30 -16 -39 0 -20 1192 -953 1224 -957 27 -4
62 40 49 62 -13 23 -1211 956 -1227 956 -8 0 -22 -10 -30 -22z"/>
<path d="M501 884 c-30 -8 -57 -16 -58 -18 -2 -2 15 -18 37 -36 l42 -33 126
-1 c113 -1 134 -4 189 -28 105 -44 192 -114 255 -207 l30 -43 -42 -61 -42 -62
33 -27 c18 -16 36 -28 39 -28 8 0 74 90 94 128 24 47 20 73 -22 138 -83 128
-242 240 -397 279 -74 19 -213 18 -284 -1z"/>
<path d="M605 732 c6 -5 66 -53 135 -107 138 -108 156 -109 103 -7 -38 75 -99
114 -186 120 -40 3 -58 1 -52 -6z"/>
<path d="M153 662 c-41 -52 -83 -125 -83 -147 0 -28 65 -127 120 -183 112
-114 244 -177 411 -197 58 -7 175 6 226 26 l28 11 -39 31 c-39 32 -41 32 -155
32 -94 1 -128 5 -181 24 -98 34 -196 105 -257 186 -57 76 -57 71 1 148 l35 46
-38 30 -38 30 -30 -37z"/>
<path d="M425 479 c12 -57 54 -119 101 -149 46 -29 139 -49 154 -34 7 7 -88
87 -237 198 l-25 19 7 -34z"/>
</g>
</svg>
