<?xml version="1.0" standalone="no"?>
<!DOCTYPE svg PUBLIC "-//W3C//DTD SVG 20010904//EN"
 "http://www.w3.org/TR/2001/REC-SVG-20010904/DTD/svg10.dtd">
<svg version="1.0" xmlns="http://www.w3.org/2000/svg"
 width="470.000000pt" height="471.000000pt" viewBox="0 0 470.000000 471.000000"
 preserveAspectRatio="xMidYMid meet">

<g transform="translate(0.000000,471.000000) scale(0.100000,-0.100000)"
fill="#000000" stroke="none">
<path d="M1600 4674 c-650 -88 -1210 -529 -1453 -1144 -172 -434 -168 -930 9
-1364 161 -394 464 -727 845 -928 568 -302 1291 -271 1832 78 75 49 87 52 87
27 0 -24 1254 -1279 1304 -1305 62 -32 171 -22 254 22 73 39 140 107 178 181
38 75 45 188 16 245 -20 38 -1266 1287 -1305 1309 -18 10 -15 16 31 91 187
302 281 626 282 971 1 921 -681 1699 -1593 1818 -143 18 -345 18 -487 -1z
m498 -673 c397 -87 729 -383 857 -765 47 -140 58 -211 58 -376 0 -165 -11
-236 -58 -376 -130 -386 -467 -683 -875 -770 -112 -24 -353 -24 -458 0 -474
106 -812 444 -918 918 -23 101 -23 356 -1 456 84 370 306 657 635 821 111 56
242 93 407 115 63 9 269 -5 353 -23z"/>
</g>
</svg>
